# xmcd CD database file
#
# Track frame offsets:
#	150
#	6792
#	17643
#	32074
#	42876
#	55333
#	63403
#	72730
#	85198
#	96202
#	110402
#	120632
#
# Disc length: 1746 seconds
#
# Revision: 0
# Processed by: cddbd v1.5.2PL0 Copyright (c) Steve Scherf et al.
# Submitted via: CDex 1.70beta2
#
DISCID=9d06d00c
DTITLE=Xavier Cugat - DAISO The Jazz Big Band 4
DYEAR=2003
DGENRE=Jazz
TTITLE0=The Continental
TTITLE1=Rumba Rhapsody
TTITLE2=Amor
TTITLE3=Rumba Rumba
TTITLE4=Besame Mucho
TTITLE5=Chop Sticks
TTITLE6=Alibaba
TTITLE7=Temptation
TTITLE8=Brazil
TTITLE9=Misirlou
TTITLE10=Dark Eyes
TTITLE11=Rain In Spain
EXTD=YEAR: 2003
EXTT0=
EXTT1=
EXTT2=
EXTT3=
EXTT4=
EXTT5=
EXTT6=
EXTT7=
EXTT8=
EXTT9=
EXTT10=
EXTT11=
PLAYORDER=
